<?xml version="1.0" encoding="utf-8"?>
<!-- Generator: Adobe Illustrator 27.8.0, SVG Export Plug-In . SVG Version: 6.00 Build 0)  -->
<svg version="1.0" id="katman_1" xmlns="http://www.w3.org/2000/svg" xmlns:xlink="http://www.w3.org/1999/xlink" x="0px" y="0px"
	 viewBox="0 0 1080 800" style="enable-background:new 0 0 1080 800;" xml:space="preserve">
<style type="text/css">
	.st0{clip-path:url(#SVGID_00000134218236028523244120000016903028911445441959_);}
	.st1{clip-path:url(#SVGID_00000091722665022983784570000011243071635215187862_);fill:#FFFFFF;}
	.st2{clip-path:url(#SVGID_00000091722665022983784570000011243071635215187862_);fill:none;stroke:#000000;stroke-width:11.914;}
	
		.st3{clip-path:url(#SVGID_00000003074320486321208780000011497008267051216280_);fill:url(#SVGID_00000082361168468714947380000007451698900750371000_);}
	
		.st4{clip-path:url(#SVGID_00000016066157189433302310000006996931552037284272_);fill:none;stroke:#000000;stroke-width:10;stroke-linecap:round;stroke-linejoin:round;}
	.st5{clip-path:url(#SVGID_00000016066157189433302310000006996931552037284272_);fill:#FFE01F;}
	
		.st6{clip-path:url(#SVGID_00000016066157189433302310000006996931552037284272_);fill:none;stroke:#000000;stroke-width:11.914;stroke-linejoin:round;}
	.st7{clip-path:url(#SVGID_00000016066157189433302310000006996931552037284272_);fill:#EB0000;}
	.st8{clip-path:url(#SVGID_00000016066157189433302310000006996931552037284272_);fill:none;stroke:#000000;stroke-width:11.914;}
	.st9{clip-path:url(#SVGID_00000016066157189433302310000006996931552037284272_);fill:#FFFFFF;}
	.st10{opacity:0.99;clip-path:url(#SVGID_00000016066157189433302310000006996931552037284272_);}
	.st11{clip-path:url(#SVGID_00000070800007754647915240000007626396067818387607_);}
	.st12{clip-path:url(#SVGID_00000088097909673977441590000015902462095479380386_);}
	.st13{clip-path:url(#SVGID_00000051341169530110182780000007627526107641511603_);}
	.st14{clip-path:url(#SVGID_00000016066157189433302310000006996931552037284272_);fill:#020202;}
</style>
<g>
	<defs>
		<rect id="SVGID_1_" width="1080" height="800"/>
	</defs>
	<clipPath id="SVGID_00000052080950307051854620000005537993210794156971_">
		<use xlink:href="#SVGID_1_"  style="overflow:visible;"/>
	</clipPath>
	<g style="clip-path:url(#SVGID_00000052080950307051854620000005537993210794156971_);">
		<defs>
			<rect id="SVGID_00000132806481118861790310000015817963815595415199_" width="1080" height="800"/>
		</defs>
		<clipPath id="SVGID_00000092440545515539661030000013849178350004104093_">
			<use xlink:href="#SVGID_00000132806481118861790310000015817963815595415199_"  style="overflow:visible;"/>
		</clipPath>
		<path style="clip-path:url(#SVGID_00000092440545515539661030000013849178350004104093_);fill:#FFFFFF;" d="M820.94,24.66
			c-24.51,1.25-48.81,25.51-22.08,65.5l-99.8,97.34l37.02,44.82l99.31-101.96c65.5,37.24,90.64-65.31,19.56-63.53
			C859.3,36.64,840.06,23.69,820.94,24.66 M257.32,31.3c-17.62,0.94-33.84,14.16-29.63,42.26c-71.08-1.78-45.91,100.77,19.46,63.53
			l99.34,101.96l37.02-44.82L283.51,96.8C311.74,54.45,283.08,29.75,257.32,31.3 M343.87,542.81l-99.25,101.61
			c-65.5-37.24-90.64,65.5-19.56,63.63c-10.35,69.21,103.46,47.81,55.92-23.39l99.81-97.37L343.87,542.81z M735.92,547.96
			l-37.02,44.76l99.81,97.34c-47.38,71.08,66.31,92.38,56.08,23.17c71.08,1.78,45.82-100.87-19.55-63.63L735.92,547.96z"/>
		
			<path style="clip-path:url(#SVGID_00000092440545515539661030000013849178350004104093_);fill:none;stroke:#000000;stroke-width:11.914;" d="
			M820.94,24.66c-24.51,1.25-48.81,25.51-22.08,65.5l-99.8,97.34l37.02,44.82l99.31-101.96c65.5,37.24,90.64-65.31,19.56-63.53
			C859.3,36.64,840.06,23.69,820.94,24.66z M257.32,31.3c-17.62,0.94-33.84,14.16-29.63,42.26c-71.08-1.78-45.91,100.77,19.46,63.53
			l99.34,101.96l37.02-44.82L283.51,96.8C311.74,54.45,283.08,29.75,257.32,31.3z M343.87,542.81l-99.25,101.61
			c-65.5-37.24-90.64,65.5-19.56,63.63c-10.35,69.21,103.46,47.81,55.92-23.39l99.81-97.37L343.87,542.81z M735.92,547.96
			l-37.02,44.76l99.81,97.34c-47.38,71.08,66.31,92.38,56.08,23.17c71.08,1.78,45.82-100.87-19.55-63.63L735.92,547.96z"/>
	</g>
	<g style="clip-path:url(#SVGID_00000052080950307051854620000005537993210794156971_);">
		<defs>
			<path id="SVGID_00000167390801798581770460000001774968864699703449_" d="M539.05,101.98c-161.2,0.02-291.86,130.71-291.84,291.9
				c0.02,161.19,130.71,291.86,291.9,291.84c161.17-0.02,291.82-130.67,291.84-291.84c-0.05-161.2-130.71-291.86-291.9-291.93
				V101.98z"/>
		</defs>
		<clipPath id="SVGID_00000013168732611084894780000010009793227516695937_">
			<use xlink:href="#SVGID_00000167390801798581770460000001774968864699703449_"  style="overflow:visible;"/>
		</clipPath>
		
			<linearGradient id="SVGID_00000073702914966221636620000006847031317554915206_" gradientUnits="userSpaceOnUse" x1="0" y1="800" x2="1" y2="800" gradientTransform="matrix(0 640.176 640.176 0 -511601.6875 148.9341)">
			<stop  offset="0" style="stop-color:#4ABFFF"/>
			<stop  offset="1" style="stop-color:#0000CB"/>
		</linearGradient>
		
			<rect x="247.19" y="101.95" style="clip-path:url(#SVGID_00000013168732611084894780000010009793227516695937_);fill:url(#SVGID_00000073702914966221636620000006847031317554915206_);" width="583.76" height="583.79"/>
	</g>
	<g style="clip-path:url(#SVGID_00000052080950307051854620000005537993210794156971_);">
		<defs>
			<rect id="SVGID_00000141435241607991060820000015015789146872299165_" width="1080" height="800"/>
		</defs>
		<clipPath id="SVGID_00000020368905293631505490000018342650058112704422_">
			<use xlink:href="#SVGID_00000141435241607991060820000015015789146872299165_"  style="overflow:visible;"/>
		</clipPath>
		
			<path style="clip-path:url(#SVGID_00000020368905293631505490000018342650058112704422_);fill:none;stroke:#000000;stroke-width:10;stroke-linecap:round;stroke-linejoin:round;" d="
			M539.05,101.98c-161.2,0.02-291.86,130.71-291.84,291.9c0.02,161.19,130.71,291.86,291.9,291.84
			c161.17-0.02,291.82-130.67,291.84-291.84c-0.05-161.2-130.71-291.86-291.9-291.93V101.98z"/>
		<path style="clip-path:url(#SVGID_00000020368905293631505490000018342650058112704422_);fill:#FFE01F;" d="M536.18,192.52
			c-97.28,0-178,69.21-192.91,159.66h385.81C714.18,261.73,633.46,192.52,536.18,192.52"/>
		
			<path style="clip-path:url(#SVGID_00000020368905293631505490000018342650058112704422_);fill:none;stroke:#000000;stroke-width:11.914;stroke-linejoin:round;" d="
			M536.18,192.52c-97.28,0-178,69.21-192.91,159.66h385.81C714.18,261.73,633.46,192.52,536.18,192.52z"/>
		<path style="clip-path:url(#SVGID_00000020368905293631505490000018342650058112704422_);fill:#EB0000;" d="M357.18,307.17
			c118.86-20.12,246.11-20.12,359.02,4.83c6.52,9.95,8.51,22.14,11.79,33.68l-381.82-1.84
			C347.27,331.66,348.79,319.43,357.18,307.17"/>
		
			<path style="clip-path:url(#SVGID_00000020368905293631505490000018342650058112704422_);fill:none;stroke:#000000;stroke-width:11.914;" d="
			M357.18,307.17c118.86-20.12,246.11-20.12,359.02,4.83c6.52,9.95,8.51,22.14,11.79,33.68l-381.82-1.84
			C347.27,331.66,348.79,319.43,357.18,307.17z"/>
		<path style="clip-path:url(#SVGID_00000020368905293631505490000018342650058112704422_);fill:#FFE01F;" d="M221.79,379.69
			c269.2,55.95,503.71,44.51,621.85-5.49C661.62,291.86,343.49,305.43,221.79,379.69"/>
		
			<path style="clip-path:url(#SVGID_00000020368905293631505490000018342650058112704422_);fill:none;stroke:#000000;stroke-width:11.914;" d="
			M221.79,379.69c269.2,55.95,503.71,44.51,621.85-5.49C661.62,291.86,343.49,305.43,221.79,379.69z"/>
		<path style="clip-path:url(#SVGID_00000020368905293631505490000018342650058112704422_);fill:#FFFFFF;" d="M341.59,387.96
			c9.36-29.19,51.93-38.86,194.56-40.17s190.94,6.74,196.49,35.59c7.83,41.17-28.66,206.51-196.49,206.51
			C367.51,589.88,329.74,424.82,341.59,387.96"/>
		
			<path style="clip-path:url(#SVGID_00000020368905293631505490000018342650058112704422_);fill:none;stroke:#000000;stroke-width:11.914;" d="
			M341.59,387.96c9.36-29.19,51.93-38.86,194.56-40.17s190.94,6.74,196.49,35.59c7.83,41.17-28.66,206.51-196.49,206.51
			C367.51,589.88,329.74,424.82,341.59,387.96z"/>
		<g style="opacity:0.99;clip-path:url(#SVGID_00000020368905293631505490000018342650058112704422_);">
			<g>
				<defs>
					<rect id="SVGID_00000147923152383316909040000000482567841467146906_" x="387.44" y="392.54" width="123.01" height="123.01"/>
				</defs>
				<clipPath id="SVGID_00000052826837037805317340000001715352646892425364_">
					<use xlink:href="#SVGID_00000147923152383316909040000000482567841467146906_"  style="overflow:visible;"/>
				</clipPath>
				<path style="clip-path:url(#SVGID_00000052826837037805317340000001715352646892425364_);" d="M510.45,454.04
					c0,33.97-27.54,61.51-61.51,61.51c-33.97,0-61.51-27.54-61.51-61.51s27.54-61.5,61.51-61.5h0.03
					c33.93-0.02,61.46,27.48,61.48,61.41V454.04z"/>
			</g>
		</g>
		<g style="opacity:0.99;clip-path:url(#SVGID_00000020368905293631505490000018342650058112704422_);">
			<g>
				<defs>
					<rect id="SVGID_00000019676727648101558780000003636605012150384313_" x="561.85" y="392.54" width="123.01" height="123.01"/>
				</defs>
				<clipPath id="SVGID_00000002344629832826631420000005364105560980335259_">
					<use xlink:href="#SVGID_00000019676727648101558780000003636605012150384313_"  style="overflow:visible;"/>
				</clipPath>
				<path style="clip-path:url(#SVGID_00000002344629832826631420000005364105560980335259_);" d="M684.86,454.04
					c0,33.97-27.54,61.51-61.51,61.51s-61.51-27.54-61.51-61.51s27.54-61.5,61.51-61.5c33.95-0.02,61.49,27.49,61.51,61.44V454.04z"
					/>
			</g>
		</g>
		<g style="opacity:0.99;clip-path:url(#SVGID_00000020368905293631505490000018342650058112704422_);">
			<g>
				<defs>
					<rect id="SVGID_00000145041528496928764290000006280143644050159244_" x="511.35" y="506.35" width="49.59" height="49.59"/>
				</defs>
				<clipPath id="SVGID_00000119839745026671069930000008391178331666914722_">
					<use xlink:href="#SVGID_00000145041528496928764290000006280143644050159244_"  style="overflow:visible;"/>
				</clipPath>
				<path style="clip-path:url(#SVGID_00000119839745026671069930000008391178331666914722_);" d="M560.94,531.15
					c0,13.69-11.1,24.8-24.8,24.8c-13.69,0-24.8-11.1-24.8-24.8s11.1-24.8,24.8-24.8c13.68-0.02,24.78,11.06,24.8,24.73V531.15z"/>
			</g>
		</g>
		<path style="clip-path:url(#SVGID_00000020368905293631505490000018342650058112704422_);fill:#FFFFFF;" d="M592.58,616.67
			c-1.59-5.15-3.33-10.38-5.02-15.43c-1.16-3.49-2.33-6.97-3.46-10.47l-1.3-4.04l4.11-1.06c6.3-1.62,12.45-3.79,19.74-6.53
			l2.82-1.06l1.8,2.41c4.99,6.7,9.32,14.18,13.22,22.88l1.36,3.03l-2.73,1.89c-8.49,5.88-18.17,8.99-25.66,11.05l-3.74,1.03
			L592.58,616.67z"/>
		<path style="clip-path:url(#SVGID_00000020368905293631505490000018342650058112704422_);fill:#020202;" d="M608.06,582.88
			c5.1,6.85,9.28,14.34,12.78,22.13c-7.35,5.09-15.88,8.13-24.44,10.48c-2.68-8.7-5.7-17.29-8.49-25.95
			C594.77,587.77,601.44,585.38,608.06,582.88 M610.88,573.28l-5.64,2.12c-5.79,2.18-12.54,4.65-19.33,6.4l-8.22,2.12l2.6,8.08
			c1.14,3.52,2.32,7.07,3.47,10.51c1.68,5.03,3.42,10.23,4.99,15.35l2.28,7.41l7.48-2.05c7.79-2.14,17.89-5.39,26.88-11.62
			l5.47-3.79l-2.72-6.07c-4.03-8.96-8.5-16.69-13.66-23.63L610.88,573.28z"/>
		<path style="clip-path:url(#SVGID_00000020368905293631505490000018342650058112704422_);fill:#FFFFFF;" d="M483.59,620.32
			c-8.82-2.25-18.09-4.92-26.05-10.47l-2.71-1.89l1.35-3.02c3.33-7.45,7.42-14.77,12.52-22.37l1.68-2.51l2.88,0.94
			c5.97,1.94,12.13,3.95,18.34,5.62l3.67,0.99l-0.8,3.71c-1.03,4.81-2.18,9.66-3.29,14.34c-0.9,3.82-1.84,7.76-2.7,11.65l-0.89,4.03
			L483.59,620.32z"/>
		<path style="clip-path:url(#SVGID_00000020368905293631505490000018342650058112704422_);fill:#020202;" d="M472.02,584.8
			c6.14,2,12.29,4,18.54,5.68c-1.86,8.69-4.06,17.29-5.98,25.96c-8.61-2.2-17.38-4.73-24.75-9.87
			C463.23,598.97,467.38,591.72,472.02,584.8 M468.75,575.32l-3.37,5.03c-5.22,7.79-9.43,15.3-12.85,22.96l-2.7,6.04l5.43,3.79
			c8.5,5.93,18.17,8.71,27.35,11.06l8.01,2.05l1.79-8.07c0.85-3.85,1.78-7.78,2.68-11.58c1.11-4.71,2.27-9.57,3.31-14.43l1.59-7.43
			l-7.34-1.97c-6.11-1.64-12.22-3.63-18.14-5.56L468.75,575.32z"/>
		<path style="clip-path:url(#SVGID_00000020368905293631505490000018342650058112704422_);fill:#FFFFFF;" d="M555.15,617.5
			c-0.91-7.08-1.85-14.4-2.66-21.63l-0.45-4l4-0.42c9.43-1,17.94-2.47,26.02-4.47l3.63-0.9l1.14,3.56
			c1.67,5.19,3.4,10.46,5.09,15.56c1.12,3.4,2.24,6.79,3.35,10.2l1.36,4.17l-4.28,0.97c-9.73,2.2-20.35,3.63-32.47,4.39l-3.74,0.23
			L555.15,617.5z"/>
		<path style="clip-path:url(#SVGID_00000020368905293631505490000018342650058112704422_);fill:#020202;" d="M583.02,590.86
			c2.76,8.61,5.64,17.18,8.44,25.77c-10.46,2.36-21.14,3.63-31.84,4.3c-1.09-8.5-2.21-16.99-3.16-25.5
			C565.4,594.48,574.29,593.03,583.02,590.86 M588.35,581.3l-7.26,1.8c-7.9,1.97-16.24,3.4-25.47,4.38l-8,0.85l0.89,7.99
			c0.81,7.27,1.76,14.61,2.67,21.72l0.5,3.91l0.95,7.44l7.48-0.47c12.33-0.77,23.16-2.24,33.1-4.48l8.57-1.93l-2.72-8.35
			c-1.11-3.39-2.23-6.79-3.34-10.18c-1.68-5.1-3.42-10.37-5.08-15.56L588.35,581.3z"/>
		<path style="clip-path:url(#SVGID_00000020368905293631505490000018342650058112704422_);fill:#FFFFFF;" d="M517.57,624.9
			c-9.35-0.54-19.02-1.71-28.74-3.47l-4.1-0.74l0.91-4.07c0.83-3.7,1.7-7.38,2.57-11.07c1.13-4.8,2.3-9.76,3.36-14.64l0.83-3.84
			l3.86,0.76c7.37,1.46,15.94,3.07,24.46,3.71l4.16,0.32l-0.49,4.14c-0.61,5.17-1.13,10.47-1.62,15.59
			c-0.31,3.24-0.63,6.49-0.97,9.73l-0.4,3.8L517.57,624.9z"/>
		<path style="clip-path:url(#SVGID_00000020368905293631505490000018342650058112704422_);fill:#020202;" d="M495.47,591.75
			c8.24,1.63,16.53,3.14,24.93,3.78c-1,8.44-1.71,16.91-2.6,25.37c-9.48-0.55-18.92-1.72-28.26-3.41
			C491.47,608.9,493.61,600.36,495.47,591.75 M489.31,582.38l-1.66,7.68c-1.05,4.85-2.21,9.8-3.34,14.58
			c-0.86,3.63-1.74,7.38-2.57,11.09l-1.83,8.14l8.21,1.49c9.87,1.79,19.7,2.97,29.22,3.52l7.62,0.44l0.8-7.59
			c0.34-3.26,0.66-6.57,0.97-9.76c0.5-5.1,1.01-10.37,1.62-15.51l0.98-8.28l-8.32-0.63c-8.3-0.63-16.73-2.22-23.98-3.65
			L489.31,582.38z"/>
		<path style="clip-path:url(#SVGID_00000020368905293631505490000018342650058112704422_);fill:#FFFFFF;" d="M540.11,625.55
			c-5.11,0-10.64-0.11-17.43-0.34l-4.27-0.15l0.42-4.25c0.24-2.36,0.48-4.71,0.73-7.07c0.62-5.91,1.25-12.03,1.72-18.03l0.29-3.77
			l4.93,0.1c3.87,0.08,7.88,0.17,11.8,0.17c4.87,0,8.92-0.13,12.74-0.4l3.8-0.27l0.46,3.78c0.45,3.75,0.92,7.5,1.39,11.26
			c0.59,4.72,1.18,9.44,1.73,14.16l0.5,4.25l-4.27,0.22C550.07,625.44,545.32,625.55,540.11,625.55"/>
		<path style="clip-path:url(#SVGID_00000020368905293631505490000018342650058112704422_);fill:#020202;" d="M551.32,595.8
			c1.02,8.47,2.12,16.93,3.12,25.41c-4.78,0.24-9.56,0.34-14.34,0.34c-5.76,0-11.52-0.14-17.28-0.34c0.84-8.4,1.8-16.78,2.45-25.19
			c4.34,0.09,8.69,0.19,13.03,0.19C542.64,596.22,546.99,596.11,551.32,595.8 M558.35,587.28l-7.6,0.54
			c-3.72,0.27-7.67,0.39-12.45,0.39c-3.87,0-7.84-0.08-11.69-0.16l-1.17-0.02l-7.56-0.16l-0.58,7.54
			c-0.46,5.94-1.09,12.03-1.7,17.91c-0.25,2.36-0.49,4.73-0.73,7.1l-0.85,8.5l8.54,0.29c6.82,0.23,12.4,0.34,17.55,0.34
			c5.28,0,10.1-0.11,14.74-0.35l8.54-0.43l-1-8.5c-0.56-4.76-1.16-9.57-1.74-14.23c-0.46-3.73-0.93-7.46-1.38-11.2L558.35,587.28z"
			/>
		<path style="clip-path:url(#SVGID_00000020368905293631505490000018342650058112704422_);fill:#FFFFFF;" d="M602.77,647.73
			c-2.42-8.1-5.19-16.26-7.86-24.16l-1.97-5.82l3.98-1.18c7.63-2.26,16.38-5.09,23.72-10.03l4.3-2.89l1.71,4.89
			c3.38,9.64,5.7,18.55,7.11,27.24l0.39,2.4l-1.96,1.45c-7.38,5.47-16.14,8.43-24.51,10.8l-3.8,1.08L602.77,647.73z"/>
		<path style="clip-path:url(#SVGID_00000020368905293631505490000018342650058112704422_);fill:#020202;" d="M622.88,609.85
			c3.03,8.65,5.47,17.5,6.94,26.56c-6.85,5.08-15.09,7.86-23.22,10.17c-2.63-8.8-5.6-17.49-8.54-26.18
			C606.69,617.84,615.35,614.92,622.88,609.85 M627,597.43l-8.59,5.79c-6.87,4.62-15.28,7.34-22.63,9.52l-7.97,2.36l2.66,7.87
			l0.65,1.92c2.66,7.85,5.41,15.97,7.8,23.98l2.26,7.56l7.59-2.16c8.74-2.48,17.91-5.59,25.8-11.44l3.91-2.9l-0.78-4.81
			c-1.45-8.93-3.83-18.06-7.29-27.92L627,597.43z"/>
		<path style="clip-path:url(#SVGID_00000020368905293631505490000018342650058112704422_);fill:#FFFFFF;" d="M476.5,651.52
			c-11.89-2.91-20.9-6.66-28.36-11.79l-2.14-1.47l0.47-2.55c1.64-8.87,4.52-17.16,7.57-25.59l1.7-4.69l4.21,2.68
			c6.29,4.01,14.03,6.96,24.38,9.28l3.91,0.88l-0.89,3.91c-0.72,3.15-1.45,6.31-2.18,9.46c-1.28,5.52-2.61,11.22-3.81,16.83
			l-0.86,4.03L476.5,651.52z"/>
		<path style="clip-path:url(#SVGID_00000020368905293631505490000018342650058112704422_);fill:#020202;" d="M457.8,611.48
			c7.78,4.96,16.7,7.8,25.65,9.81c-1.99,8.78-4.12,17.54-6,26.34c-9.51-2.33-18.92-5.61-27.05-11.2
			C451.98,627.89,454.84,619.64,457.8,611.48 M453.68,599.37l-3.4,9.38c-2.99,8.25-6.05,17.06-7.75,26.22l-0.94,5.11l4.28,2.94
			c7.87,5.41,17.3,9.35,29.68,12.38l8.01,1.96l1.72-8.06c1.19-5.58,2.51-11.27,3.79-16.77c0.74-3.16,1.47-6.31,2.18-9.47l1.77-7.82
			l-7.82-1.76c-9.88-2.22-17.22-5-23.1-8.75L453.68,599.37z"/>
		<path style="clip-path:url(#SVGID_00000020368905293631505490000018342650058112704422_);fill:#FFFFFF;" d="M559.24,650.82
			c-1-8.13-2-16.25-2.99-24.38l-0.51-4.18l4.21-0.29c9.63-0.66,20.99-1.71,32.21-4.38l3.57-0.85l1.15,3.49
			c1.45,4.38,2.89,8.76,4.34,13.15c1.46,4.44,2.93,8.88,4.4,13.32l1.39,4.2l-4.32,0.96c-12.22,2.73-25.3,4.54-38.87,5.39l-3.76,0.23
			L559.24,650.82z"/>
		<path style="clip-path:url(#SVGID_00000020368905293631505490000018342650058112704422_);fill:#020202;" d="M593.08,621.47
			c2.92,8.82,5.82,17.65,8.74,26.47c-12.58,2.81-25.39,4.5-38.25,5.3c-1.12-9.1-2.24-18.19-3.35-27.29
			C571.25,625.19,582.31,624.05,593.08,621.47 M598.37,611.99l-7.14,1.71c-10.93,2.61-22.09,3.63-31.55,4.28l-8.41,0.58l1.02,8.37
			c1,8.21,2.01,16.4,3.02,24.61l0.33,2.69l0.92,7.48l7.52-0.47c13.78-0.86,27.06-2.7,39.5-5.48l8.63-1.93l-2.78-8.39
			c-1.46-4.41-2.91-8.82-4.37-13.23c-1.46-4.41-2.91-8.83-4.37-13.24L598.37,611.99z"/>
		<path style="clip-path:url(#SVGID_00000020368905293631505490000018342650058112704422_);fill:#FFFFFF;" d="M514.45,657.09
			c-9.67-0.52-19.78-1.84-32.79-4.25l-4.04-0.75l0.85-4.01c0.96-4.53,2.02-9.1,3.05-13.52c0.99-4.26,2.01-8.66,2.93-12.99l0.82-3.84
			l3.86,0.75c8.4,1.64,17.71,2.78,28.46,3.48l4.14,0.27l-0.96,9.33c-0.75,7.17-1.52,14.58-2.11,21.86l-0.32,3.88L514.45,657.09z"/>
		<path style="clip-path:url(#SVGID_00000020368905293631505490000018342650058112704422_);fill:#020202;" d="M488.37,622.4
			c9.55,1.86,19.25,2.91,28.96,3.55c-0.93,9.04-1.92,18.08-2.66,27.14c-10.85-0.59-21.61-2.21-32.28-4.19
			C484.27,640.04,486.48,631.26,488.37,622.4 M482.19,613.05l-1.64,7.69c-0.92,4.29-1.93,8.68-2.92,12.92
			c-1.03,4.43-2.09,9.02-3.06,13.59l-1.7,8.03l8.07,1.5c13.01,2.41,23.59,3.78,33.3,4.31l7.77,0.42l0.63-7.76
			c0.59-7.23,1.36-14.61,2.1-21.75c0.18-1.74,0.36-3.48,0.54-5.22l0.85-8.26l-8.28-0.55c-10.58-0.7-19.72-1.82-27.96-3.42
			L482.19,613.05z"/>
		<path style="clip-path:url(#SVGID_00000020368905293631505490000018342650058112704422_);fill:#FFFFFF;" d="M539.9,657.87
			c-7,0-13.89-0.11-20.48-0.34l-4.32-0.15l0.49-4.3c0.99-8.77,1.83-17.51,2.73-27.21l0.35-3.78l3.79,0.15
			c6.79,0.27,12.34,0.4,17.48,0.4c5.36,0,10.25-0.14,14.92-0.42l3.78-0.23l0.44,3.76c0.55,4.79,1.17,9.66,1.77,14.38
			c0.55,4.34,1.1,8.68,1.61,13.02l0.51,4.35l-4.38,0.12C552.19,657.78,545.9,657.87,539.9,657.87"/>
		<path style="clip-path:url(#SVGID_00000020368905293631505490000018342650058112704422_);fill:#020202;" d="M555.11,626.2
			c1.06,9.14,2.31,18.26,3.39,27.41c-6.2,0.16-12.4,0.25-18.6,0.25c-6.78,0-13.56-0.11-20.34-0.34c1.03-9.08,1.89-18.19,2.74-27.29
			c5.88,0.24,11.76,0.4,17.64,0.4C545,626.64,550.05,626.51,555.11,626.2 M562.18,617.76l-7.56,0.46c-4.6,0.28-9.4,0.42-14.68,0.42
			c-5.08,0-10.58-0.13-17.31-0.4l-7.58-0.3l-0.7,7.55c-0.9,9.67-1.73,18.39-2.72,27.13l-0.97,8.6l8.65,0.3
			c6.63,0.23,13.57,0.35,20.61,0.35c6.04,0,12.36-0.09,18.81-0.25l8.76-0.23l-1.03-8.71c-0.52-4.38-1.08-8.8-1.62-13.08
			c-0.6-4.7-1.21-9.55-1.77-14.32L562.18,617.76z"/>
		<path style="clip-path:url(#SVGID_00000020368905293631505490000018342650058112704422_);fill:#FFFFFF;" d="M540.79,718.62
			c-13.11,0-25.85-2.34-37.87-6.96c-19.5-7.2-35.46-18.96-46.1-34c-7.35-10.41-11.34-23.05-11.23-35.61l0.06-7.02l6.01,3.62
			c16.48,9.94,36.03,12.79,56.29,15.03c11.42,0.9,22.52,1.35,33,1.35c15.73,0,30.86-1.02,44.96-3.05
			c13.55-2.17,29.17-5.16,42.29-13.05l5.89-3.54l0.17,6.86c0.41,16.07-5.55,32.08-16.35,43.93c-15.42,17.8-36.49,25.77-51.44,29.3
			C558.13,717.57,549.48,718.62,540.79,718.62"/>
		<path style="clip-path:url(#SVGID_00000020368905293631505490000018342650058112704422_);fill:#020202;" d="M449.59,642.09
			c17.42,10.51,38.1,13.39,57.98,15.59c11.09,0.87,22.23,1.37,33.37,1.37c15.23,0,30.45-0.93,45.53-3.08
			c15.09-2.42,30.52-5.61,43.78-13.58c0.38,15.02-5.19,30.03-15.31,41.14c-12.68,14.64-30.75,23.69-49.4,28.1
			c-8.09,2.01-16.42,3.01-24.75,3.01c-12.41,0-24.82-2.23-36.43-6.69c-17.39-6.42-33.48-17.33-44.27-32.58
			C453.26,665.68,449.49,653.93,449.59,642.09 M441.71,627.99l-0.12,14.03c-0.11,13.39,4.14,26.87,11.96,37.95
			c11.11,15.7,27.7,27.95,47.99,35.45c12.46,4.78,25.67,7.2,39.25,7.2c9,0,17.96-1.09,26.63-3.24c15.5-3.67,37.34-11.95,53.5-30.56
			c11.44-12.6,17.76-29.6,17.33-46.65l-0.35-13.73l-11.77,7.08c-12.49,7.51-27.63,10.4-40.86,12.53
			c-13.9,1.99-28.81,2.99-44.33,2.99c-10.35,0-21.32-0.45-32.62-1.33c-19.78-2.19-38.83-4.96-54.6-14.47L441.71,627.99z"/>
	</g>
</g>
</svg>
